<?xml version="1.0" encoding="UTF-8" standalone="no"?>
<!DOCTYPE svg PUBLIC "-//W3C//DTD SVG 1.1//EN"
 "http://www.w3.org/Graphics/SVG/1.1/DTD/svg11.dtd">
<!-- Generated by graphviz version 2.26.3 (20100126.1600)
 -->
<!-- Title: brainfuck Pages: 1 -->
<svg width="190pt" height="1576pt"
 viewBox="0.00 0.00 190.00 1576.00" xmlns="http://www.w3.org/2000/svg" xmlns:xlink="http://www.w3.org/1999/xlink">
<g id="graph1" class="graph" transform="scale(1 1) rotate(0) translate(4 1572)">
<title>brainfuck</title>
<polygon fill="white" stroke="white" points="-4,5 -4,-1572 187,-1572 187,5 -4,5"/>
<!-- 0.start -->
<g id="node2" class="node"><title>0.start</title>
<polygon fill="none" stroke="black" points="54,-1568 2.13163e-14,-1568 0,-1532 54,-1532 54,-1568"/>
<text text-anchor="middle" x="27" y="-1546.4" font-family="Times Roman,serif" font-size="14.00">[</text>
</g>
<!-- 0.end -->
<g id="node3" class="node"><title>0.end</title>
<polygon fill="none" stroke="black" points="54,-1056 2.13163e-14,-1056 0,-1020 54,-1020 54,-1056"/>
<text text-anchor="middle" x="27" y="-1034.4" font-family="Times Roman,serif" font-size="14.00">]</text>
</g>
<!-- 0.start&#45;&gt;0.end -->
<g id="edge10" class="edge"><title>0.start&#45;&gt;0.end</title>
<path fill="none" stroke="black" stroke-dasharray="1,5" d="M21.234,-1531.9C18,-1504.15 18,-1449.45 18,-1403 18,-1403 18,-1403 18,-1185 18,-1143.63 18,-1095.72 20.2847,-1066.13"/>
<polygon fill="black" stroke="black" points="23.7756,-1066.39 21.234,-1056.1 16.8067,-1065.73 23.7756,-1066.39"/>
</g>
<!-- 0.0 -->
<g id="node4" class="node"><title>0.0</title>
<ellipse fill="none" stroke="black" cx="91" cy="-1477" rx="27" ry="18.3848"/>
<text text-anchor="middle" x="91" y="-1473.4" font-family="Times Roman,serif" font-size="14.00">+</text>
</g>
<!-- 0.start&#45;&gt;0.0 -->
<g id="edge14" class="edge"><title>0.start&#45;&gt;0.0</title>
<path fill="none" stroke="black" d="M42.8202,-1531.96C50.9985,-1522.63 61.0901,-1511.12 69.9208,-1501.04"/>
<polygon fill="black" stroke="black" points="72.7114,-1503.17 76.672,-1493.34 67.4479,-1498.55 72.7114,-1503.17"/>
</g>
<!-- 0.end&#45;&gt;0.start -->
<g id="edge12" class="edge"><title>0.end&#45;&gt;0.start</title>
<path fill="none" stroke="black" stroke-dasharray="1,5" d="M32.766,-1056.1C36,-1083.85 36,-1138.55 36,-1185 36,-1403 36,-1403 36,-1403 36,-1444.37 36,-1492.28 33.7153,-1521.87"/>
<polygon fill="black" stroke="black" points="30.2244,-1521.61 32.766,-1531.9 37.1933,-1522.27 30.2244,-1521.61"/>
</g>
<!-- 1 -->
<g id="node22" class="node"><title>1</title>
<ellipse fill="none" stroke="black" cx="27" cy="-965" rx="27" ry="18.3848"/>
<text text-anchor="middle" x="27" y="-961.4" font-family="Times Roman,serif" font-size="14.00">&gt;</text>
</g>
<!-- 0.end&#45;&gt;1 -->
<g id="edge62" class="edge"><title>0.end&#45;&gt;1</title>
<path fill="none" stroke="black" d="M27,-1019.96C27,-1012.09 27,-1002.68 27,-993.878"/>
<polygon fill="black" stroke="black" points="30.5001,-993.599 27,-983.6 23.5001,-993.6 30.5001,-993.599"/>
</g>
<!-- 0.1 -->
<g id="node5" class="node"><title>0.1</title>
<ellipse fill="none" stroke="black" cx="91" cy="-1403" rx="27" ry="18.3848"/>
<text text-anchor="middle" x="91" y="-1399.4" font-family="Times Roman,serif" font-size="14.00">.</text>
</g>
<!-- 0.0&#45;&gt;0.1 -->
<g id="edge18" class="edge"><title>0.0&#45;&gt;0.1</title>
<path fill="none" stroke="black" d="M91,-1458.33C91,-1450.26 91,-1440.65 91,-1431.71"/>
<polygon fill="black" stroke="black" points="94.5001,-1431.67 91,-1421.67 87.5001,-1431.67 94.5001,-1431.67"/>
</g>
<!-- 0.2.start -->
<g id="node7" class="node"><title>0.2.start</title>
<polygon fill="none" stroke="black" points="118,-1348 64,-1348 64,-1312 118,-1312 118,-1348"/>
<text text-anchor="middle" x="91" y="-1326.4" font-family="Times Roman,serif" font-size="14.00">[</text>
</g>
<!-- 0.1&#45;&gt;0.2.start -->
<g id="edge20" class="edge"><title>0.1&#45;&gt;0.2.start</title>
<path fill="none" stroke="black" d="M91,-1384.2C91,-1376.33 91,-1367.01 91,-1358.34"/>
<polygon fill="black" stroke="black" points="94.5001,-1358.23 91,-1348.23 87.5001,-1358.23 94.5001,-1358.23"/>
</g>
<!-- 0.2.end -->
<g id="node8" class="node"><title>0.2.end</title>
<polygon fill="none" stroke="black" points="118,-1276 64,-1276 64,-1240 118,-1240 118,-1276"/>
<text text-anchor="middle" x="91" y="-1254.4" font-family="Times Roman,serif" font-size="14.00">]</text>
</g>
<!-- 0.2.start&#45;&gt;0.2.end -->
<g id="edge4" class="edge"><title>0.2.start&#45;&gt;0.2.end</title>
<path fill="none" stroke="black" stroke-dasharray="1,5" d="M79.0952,-1311.83C77.5944,-1304.13 77.1526,-1294.97 77.7698,-1286.42"/>
<polygon fill="black" stroke="black" points="81.2522,-1286.78 79.048,-1276.41 74.3087,-1285.89 81.2522,-1286.78"/>
</g>
<!-- 0.2.start&#45;&gt;0.2.end -->
<g id="edge8" class="edge"><title>0.2.start&#45;&gt;0.2.end</title>
<path fill="none" stroke="black" d="M102.905,-1311.83C104.406,-1304.13 104.847,-1294.97 104.23,-1286.42"/>
<polygon fill="black" stroke="black" points="107.691,-1285.89 102.952,-1276.41 100.748,-1286.78 107.691,-1285.89"/>
</g>
<!-- 0.2.end&#45;&gt;0.2.start -->
<g id="edge6" class="edge"><title>0.2.end&#45;&gt;0.2.start</title>
<path fill="none" stroke="black" stroke-dasharray="1,5" d="M91,-1276.41C91,-1284.06 91,-1293.11 91,-1301.57"/>
<polygon fill="black" stroke="black" points="87.5001,-1301.83 91,-1311.83 94.5001,-1301.83 87.5001,-1301.83"/>
</g>
<!-- 0.3 -->
<g id="node12" class="node"><title>0.3</title>
<ellipse fill="none" stroke="black" cx="91" cy="-1185" rx="27" ry="18.3848"/>
<text text-anchor="middle" x="91" y="-1181.4" font-family="Times Roman,serif" font-size="14.00">+</text>
</g>
<!-- 0.2.end&#45;&gt;0.3 -->
<g id="edge22" class="edge"><title>0.2.end&#45;&gt;0.3</title>
<path fill="none" stroke="black" d="M91,-1239.96C91,-1232.09 91,-1222.68 91,-1213.88"/>
<polygon fill="black" stroke="black" points="94.5001,-1213.6 91,-1203.6 87.5001,-1213.6 94.5001,-1213.6"/>
</g>
<!-- 0.4 -->
<g id="node13" class="node"><title>0.4</title>
<ellipse fill="none" stroke="black" cx="91" cy="-1111" rx="27" ry="18.3848"/>
<text text-anchor="middle" x="91" y="-1107.4" font-family="Times Roman,serif" font-size="14.00">&gt;</text>
</g>
<!-- 0.3&#45;&gt;0.4 -->
<g id="edge24" class="edge"><title>0.3&#45;&gt;0.4</title>
<path fill="none" stroke="black" d="M91,-1166.33C91,-1158.26 91,-1148.65 91,-1139.71"/>
<polygon fill="black" stroke="black" points="94.5001,-1139.67 91,-1129.67 87.5001,-1139.67 94.5001,-1139.67"/>
</g>
<!-- 0.4&#45;&gt;0.end -->
<g id="edge16" class="edge"><title>0.4&#45;&gt;0.end</title>
<path fill="none" stroke="black" d="M76.7963,-1094.8C68.8143,-1085.69 58.6661,-1074.12 49.6164,-1063.8"/>
<polygon fill="black" stroke="black" points="52.1884,-1061.42 42.9642,-1056.21 46.9248,-1066.04 52.1884,-1061.42"/>
</g>
<!-- 2 -->
<g id="node23" class="node"><title>2</title>
<ellipse fill="none" stroke="black" cx="27" cy="-891" rx="27" ry="18.3848"/>
<text text-anchor="middle" x="27" y="-887.4" font-family="Times Roman,serif" font-size="14.00">&gt;</text>
</g>
<!-- 1&#45;&gt;2 -->
<g id="edge64" class="edge"><title>1&#45;&gt;2</title>
<path fill="none" stroke="black" d="M27,-946.327C27,-938.264 27,-928.648 27,-919.711"/>
<polygon fill="black" stroke="black" points="30.5001,-919.667 27,-909.667 23.5001,-919.667 30.5001,-919.667"/>
</g>
<!-- 3 -->
<g id="node24" class="node"><title>3</title>
<ellipse fill="none" stroke="black" cx="27" cy="-817" rx="27" ry="18.3848"/>
<text text-anchor="middle" x="27" y="-813.4" font-family="Times Roman,serif" font-size="14.00">&#45;</text>
</g>
<!-- 2&#45;&gt;3 -->
<g id="edge66" class="edge"><title>2&#45;&gt;3</title>
<path fill="none" stroke="black" d="M27,-872.327C27,-864.264 27,-854.648 27,-845.711"/>
<polygon fill="black" stroke="black" points="30.5001,-845.667 27,-835.667 23.5001,-845.667 30.5001,-845.667"/>
</g>
<!-- 4.start -->
<g id="node26" class="node"><title>4.start</title>
<polygon fill="none" stroke="black" points="54,-762 2.13163e-14,-762 0,-726 54,-726 54,-762"/>
<text text-anchor="middle" x="27" y="-740.4" font-family="Times Roman,serif" font-size="14.00">[</text>
</g>
<!-- 3&#45;&gt;4.start -->
<g id="edge68" class="edge"><title>3&#45;&gt;4.start</title>
<path fill="none" stroke="black" d="M27,-798.201C27,-790.332 27,-781.015 27,-772.345"/>
<polygon fill="black" stroke="black" points="30.5001,-772.231 27,-762.231 23.5001,-772.231 30.5001,-772.231"/>
</g>
<!-- 4.end -->
<g id="node27" class="node"><title>4.end</title>
<polygon fill="none" stroke="black" points="54,-398 2.13163e-14,-398 0,-362 54,-362 54,-398"/>
<text text-anchor="middle" x="27" y="-376.4" font-family="Times Roman,serif" font-size="14.00">]</text>
</g>
<!-- 4.start&#45;&gt;4.end -->
<g id="edge36" class="edge"><title>4.start&#45;&gt;4.end</title>
<path fill="none" stroke="black" stroke-dasharray="1,5" d="M21.181,-725.688C18,-698.182 18,-644.564 18,-599 18,-599 18,-599 18,-526 18,-485.139 18,-437.847 20.2472,-408.424"/>
<polygon fill="black" stroke="black" points="23.7347,-408.72 21.181,-398.438 16.7651,-408.069 23.7347,-408.72"/>
</g>
<!-- 4.0.start -->
<g id="node29" class="node"><title>4.0.start</title>
<polygon fill="none" stroke="black" points="118,-690 64,-690 64,-654 118,-654 118,-690"/>
<text text-anchor="middle" x="91" y="-668.4" font-family="Times Roman,serif" font-size="14.00">[</text>
</g>
<!-- 4.start&#45;&gt;4.0.start -->
<g id="edge40" class="edge"><title>4.start&#45;&gt;4.0.start</title>
<path fill="none" stroke="black" d="M43.1499,-725.831C50.6717,-717.369 59.7565,-707.149 67.9804,-697.897"/>
<polygon fill="black" stroke="black" points="70.6049,-700.213 74.6327,-690.413 65.373,-695.562 70.6049,-700.213"/>
</g>
<!-- 4.end&#45;&gt;4.start -->
<g id="edge38" class="edge"><title>4.end&#45;&gt;4.start</title>
<path fill="none" stroke="black" stroke-dasharray="1,5" d="M32.819,-398.438C36,-426.134 36,-480.122 36,-526 36,-599 36,-599 36,-599 36,-639.403 36,-686.138 33.7822,-715.385"/>
<polygon fill="black" stroke="black" points="30.2651,-715.406 32.819,-725.688 37.2347,-716.058 30.2651,-715.406"/>
</g>
<!-- 5 -->
<g id="node42" class="node"><title>5</title>
<ellipse fill="none" stroke="black" cx="27" cy="-307" rx="27" ry="18.3848"/>
<text text-anchor="middle" x="27" y="-303.4" font-family="Times Roman,serif" font-size="14.00">&#45;</text>
</g>
<!-- 4.end&#45;&gt;5 -->
<g id="edge70" class="edge"><title>4.end&#45;&gt;5</title>
<path fill="none" stroke="black" d="M27,-361.955C27,-354.091 27,-344.675 27,-335.878"/>
<polygon fill="black" stroke="black" points="30.5001,-335.599 27,-325.6 23.5001,-335.6 30.5001,-335.599"/>
</g>
<!-- 4.0.end -->
<g id="node30" class="node"><title>4.0.end</title>
<polygon fill="none" stroke="black" points="118,-544 64,-544 64,-508 118,-508 118,-544"/>
<text text-anchor="middle" x="91" y="-522.4" font-family="Times Roman,serif" font-size="14.00">]</text>
</g>
<!-- 4.0.start&#45;&gt;4.0.end -->
<g id="edge28" class="edge"><title>4.0.start&#45;&gt;4.0.end</title>
<path fill="none" stroke="black" stroke-dasharray="1,5" d="M86.3562,-653.804C83.8619,-628.887 83.583,-583.894 85.5196,-554.488"/>
<polygon fill="black" stroke="black" points="89.0158,-554.675 86.3333,-544.425 82.0386,-554.11 89.0158,-554.675"/>
</g>
<!-- 4.0.0 -->
<g id="node31" class="node"><title>4.0.0</title>
<ellipse fill="none" stroke="black" cx="155" cy="-599" rx="27" ry="18.3848"/>
<text text-anchor="middle" x="155" y="-595.4" font-family="Times Roman,serif" font-size="14.00">+</text>
</g>
<!-- 4.0.start&#45;&gt;4.0.0 -->
<g id="edge32" class="edge"><title>4.0.start&#45;&gt;4.0.0</title>
<path fill="none" stroke="black" d="M106.82,-653.955C114.998,-644.627 125.09,-633.116 133.921,-623.043"/>
<polygon fill="black" stroke="black" points="136.711,-625.17 140.672,-615.343 131.448,-620.555 136.711,-625.17"/>
</g>
<!-- 4.0.end&#45;&gt;4.0.start -->
<g id="edge30" class="edge"><title>4.0.end&#45;&gt;4.0.start</title>
<path fill="none" stroke="black" stroke-dasharray="1,5" d="M95.6667,-544.425C98.1474,-569.465 98.4127,-614.471 96.4625,-643.782"/>
<polygon fill="black" stroke="black" points="92.9697,-643.552 95.6438,-653.804 99.9465,-644.122 92.9697,-643.552"/>
</g>
<!-- 4.1 -->
<g id="node36" class="node"><title>4.1</title>
<ellipse fill="none" stroke="black" cx="91" cy="-453" rx="27" ry="18.3848"/>
<text text-anchor="middle" x="91" y="-449.4" font-family="Times Roman,serif" font-size="14.00">&gt;</text>
</g>
<!-- 4.0.end&#45;&gt;4.1 -->
<g id="edge44" class="edge"><title>4.0.end&#45;&gt;4.1</title>
<path fill="none" stroke="black" d="M91,-507.955C91,-500.091 91,-490.675 91,-481.878"/>
<polygon fill="black" stroke="black" points="94.5001,-481.599 91,-471.6 87.5001,-481.6 94.5001,-481.599"/>
</g>
<!-- 4.0.0&#45;&gt;4.0.end -->
<g id="edge34" class="edge"><title>4.0.0&#45;&gt;4.0.end</title>
<path fill="none" stroke="black" d="M140.796,-582.799C132.814,-573.694 122.666,-562.119 113.616,-551.797"/>
<polygon fill="black" stroke="black" points="116.188,-549.421 106.964,-544.209 110.925,-554.036 116.188,-549.421"/>
</g>
<!-- 4.1&#45;&gt;4.end -->
<g id="edge42" class="edge"><title>4.1&#45;&gt;4.end</title>
<path fill="none" stroke="black" d="M76.7963,-436.799C68.8143,-427.694 58.6661,-416.119 49.6164,-405.797"/>
<polygon fill="black" stroke="black" points="52.1884,-403.421 42.9642,-398.209 46.9248,-408.036 52.1884,-403.421"/>
</g>
<!-- 6.start -->
<g id="node44" class="node"><title>6.start</title>
<polygon fill="none" stroke="black" points="54,-252 2.13163e-14,-252 0,-216 54,-216 54,-252"/>
<text text-anchor="middle" x="27" y="-230.4" font-family="Times Roman,serif" font-size="14.00">[</text>
</g>
<!-- 5&#45;&gt;6.start -->
<g id="edge72" class="edge"><title>5&#45;&gt;6.start</title>
<path fill="none" stroke="black" d="M27,-288.201C27,-280.332 27,-271.015 27,-262.345"/>
<polygon fill="black" stroke="black" points="30.5001,-262.231 27,-252.231 23.5001,-262.231 30.5001,-262.231"/>
</g>
<!-- 6.end -->
<g id="node45" class="node"><title>6.end</title>
<polygon fill="none" stroke="black" points="54,-36 2.13163e-14,-36 0,-1.77636e-14 54,-3.55271e-15 54,-36"/>
<text text-anchor="middle" x="27" y="-14.4" font-family="Times Roman,serif" font-size="14.00">]</text>
</g>
<!-- 6.start&#45;&gt;6.end -->
<g id="edge54" class="edge"><title>6.start&#45;&gt;6.end</title>
<path fill="none" stroke="black" stroke-dasharray="1,5" d="M23.0541,-215.955C19.5956,-178.314 19.3363,-91.1867 22.2761,-46.1246"/>
<polygon fill="black" stroke="black" points="25.7664,-46.3844 23.0449,-36.1451 18.7871,-45.8467 25.7664,-46.3844"/>
</g>
<!-- 6.0.start -->
<g id="node47" class="node"><title>6.0.start</title>
<polygon fill="none" stroke="black" points="118,-180 64,-180 64,-144 118,-144 118,-180"/>
<text text-anchor="middle" x="91" y="-158.4" font-family="Times Roman,serif" font-size="14.00">[</text>
</g>
<!-- 6.start&#45;&gt;6.0.start -->
<g id="edge58" class="edge"><title>6.start&#45;&gt;6.0.start</title>
<path fill="none" stroke="black" d="M43.1499,-215.831C50.6717,-207.369 59.7565,-197.149 67.9804,-187.897"/>
<polygon fill="black" stroke="black" points="70.6049,-190.213 74.6327,-180.413 65.373,-185.562 70.6049,-190.213"/>
</g>
<!-- 6.end&#45;&gt;6.start -->
<g id="edge56" class="edge"><title>6.end&#45;&gt;6.start</title>
<path fill="none" stroke="black" stroke-dasharray="1,5" d="M30.9551,-36.1451C34.4006,-73.7945 34.6604,-160.641 31.7346,-205.71"/>
<polygon fill="black" stroke="black" points="28.2239,-205.716 30.9459,-215.955 35.2032,-206.254 28.2239,-205.716"/>
</g>
<!-- 6.0.end -->
<g id="node48" class="node"><title>6.0.end</title>
<polygon fill="none" stroke="black" points="118,-108 64,-108 64,-72 118,-72 118,-108"/>
<text text-anchor="middle" x="91" y="-86.4" font-family="Times Roman,serif" font-size="14.00">]</text>
</g>
<!-- 6.0.start&#45;&gt;6.0.end -->
<g id="edge48" class="edge"><title>6.0.start&#45;&gt;6.0.end</title>
<path fill="none" stroke="black" stroke-dasharray="1,5" d="M79.0952,-143.831C77.5944,-136.131 77.1526,-126.974 77.7698,-118.417"/>
<polygon fill="black" stroke="black" points="81.2522,-118.776 79.048,-108.413 74.3087,-117.889 81.2522,-118.776"/>
</g>
<!-- 6.0.start&#45;&gt;6.0.end -->
<g id="edge52" class="edge"><title>6.0.start&#45;&gt;6.0.end</title>
<path fill="none" stroke="black" d="M102.905,-143.831C104.406,-136.131 104.847,-126.974 104.23,-118.417"/>
<polygon fill="black" stroke="black" points="107.691,-117.889 102.952,-108.413 100.748,-118.776 107.691,-117.889"/>
</g>
<!-- 6.0.end&#45;&gt;6.end -->
<g id="edge60" class="edge"><title>6.0.end&#45;&gt;6.end</title>
<path fill="none" stroke="black" d="M74.8501,-71.8314C67.3283,-63.3694 58.2435,-53.1489 50.0196,-43.8971"/>
<polygon fill="black" stroke="black" points="52.627,-41.5621 43.3673,-36.4133 47.3951,-46.2127 52.627,-41.5621"/>
</g>
<!-- 6.0.end&#45;&gt;6.0.start -->
<g id="edge50" class="edge"><title>6.0.end&#45;&gt;6.0.start</title>
<path fill="none" stroke="black" stroke-dasharray="1,5" d="M91,-108.413C91,-116.059 91,-125.108 91,-133.573"/>
<polygon fill="black" stroke="black" points="87.5001,-133.831 91,-143.831 94.5001,-133.831 87.5001,-133.831"/>
</g>
</g>
</svg>
